<svg width="171" height="61" viewBox="0 0 171 61" fill="none" xmlns="http://www.w3.org/2000/svg">
<rect x="30" width="110" height="61" fill="#8F12E1"/>
<rect x="30.3236" y="0.111633" width="42.8841" height="42.8841" transform="rotate(45 30.3236 0.111633)" fill="#8F12E1"/>
<rect x="140.324" width="42.8841" height="42.8841" transform="rotate(45 140.324 0)" fill="#8F12E1"/>
<path d="M71.32 24.36H78.72V26.36H71.32V24.36ZM66.4 35.42H83.68V37.4H66.4V35.42ZM67.56 19.74H73.16V21.68H67.56V19.74ZM72.4 19.74H72.82L73.22 19.64L74.8 20.44C74.4267 21.4133 73.96 22.3267 73.4 23.18C72.84 24.02 72.2067 24.7933 71.5 25.5C70.7933 26.2067 70.04 26.84 69.24 27.4C68.44 27.9467 67.62 28.4267 66.78 28.84C66.6333 28.5867 66.4133 28.2867 66.12 27.94C65.84 27.58 65.58 27.3 65.34 27.1C66.0867 26.78 66.82 26.38 67.54 25.9C68.2733 25.42 68.9533 24.8733 69.58 24.26C70.22 23.6467 70.78 22.9933 71.26 22.3C71.7533 21.6067 72.1333 20.8933 72.4 20.16V19.74ZM76.98 19.08C77.4333 20.16 78.0333 21.1867 78.78 22.16C79.54 23.1333 80.4133 24 81.4 24.76C82.4 25.52 83.4733 26.12 84.62 26.56C84.4467 26.72 84.2533 26.92 84.04 27.16C83.84 27.3867 83.6467 27.6267 83.46 27.88C83.2867 28.12 83.14 28.3467 83.02 28.56C81.7933 28 80.6667 27.28 79.64 26.4C78.6267 25.52 77.7267 24.5133 76.94 23.38C76.1533 22.2467 75.48 21.0267 74.92 19.72L76.98 19.08ZM66.6 23.34L67.9 22.02C68.1933 22.1933 68.5 22.3867 68.82 22.6C69.14 22.8133 69.44 23.0333 69.72 23.26C70.0133 23.4867 70.2467 23.7 70.42 23.9L69.06 25.36C68.8067 25.0667 68.44 24.7267 67.96 24.34C67.4933 23.9533 67.04 23.62 66.6 23.34ZM80.04 19.2L81.86 20.48C81.3 20.9467 80.7133 21.4067 80.1 21.86C79.5 22.3133 78.9467 22.7 78.44 23.02L77.02 21.9C77.34 21.6733 77.6867 21.4067 78.06 21.1C78.4333 20.78 78.7933 20.4533 79.14 20.12C79.5 19.7867 79.8 19.48 80.04 19.2ZM82.3 21.52L84.06 22.76C83.5 23.2533 82.8933 23.7467 82.24 24.24C81.6 24.7333 81.0133 25.14 80.48 25.46L79.04 24.34C79.4 24.1 79.7733 23.82 80.16 23.5C80.56 23.18 80.9467 22.8467 81.32 22.5C81.7067 22.1533 82.0333 21.8267 82.3 21.52ZM71.52 29.4V31.18H78.36V29.4H71.52ZM69.18 27.5H80.84V33.08H69.18V27.5ZM70.34 33.34L72.54 32.78C72.7933 33.14 73.02 33.5467 73.22 34C73.4333 34.4533 73.5867 34.8533 73.68 35.2L71.36 35.86C71.2933 35.5133 71.16 35.1 70.96 34.62C70.7733 34.14 70.5667 33.7133 70.34 33.34ZM77.46 32.74L79.8 33.24C79.5467 33.7333 79.3067 34.2 79.08 34.64C78.8533 35.08 78.6333 35.46 78.42 35.78L76.32 35.3C76.4667 35.06 76.6067 34.7933 76.74 34.5C76.8867 34.1933 77.02 33.8867 77.14 33.58C77.2733 33.2733 77.38 32.9933 77.46 32.74ZM89.58 20.12H95.26V22.56H89.58V20.12ZM94.08 20.12H96.56C96.56 20.76 96.5867 21.4867 96.64 22.3C96.6933 23.1 96.8067 23.96 96.98 24.88C97.1533 25.7867 97.4133 26.72 97.76 27.68C98.1067 28.64 98.5667 29.5933 99.14 30.54C99.7267 31.4733 100.46 32.3733 101.34 33.24C102.22 34.1067 103.273 34.9067 104.5 35.64C104.327 35.7733 104.113 35.9667 103.86 36.22C103.607 36.4733 103.36 36.7333 103.12 37C102.893 37.28 102.707 37.5267 102.56 37.74C101.307 36.9667 100.22 36.1 99.3 35.14C98.38 34.1667 97.6067 33.14 96.98 32.06C96.3533 30.9667 95.8467 29.8667 95.46 28.76C95.0733 27.64 94.78 26.5533 94.58 25.5C94.38 24.4333 94.2467 23.44 94.18 22.52C94.1133 21.6 94.08 20.8 94.08 20.12ZM93.22 24.52L95.96 25.02C95.5067 26.9933 94.9 28.7867 94.14 30.4C93.38 32.0133 92.4667 33.4333 91.4 34.66C90.3467 35.8867 89.1267 36.92 87.74 37.76C87.5933 37.5867 87.3867 37.3733 87.12 37.12C86.8533 36.88 86.5733 36.6333 86.28 36.38C86 36.14 85.7533 35.9467 85.54 35.8C87.6333 34.7467 89.3 33.2667 90.54 31.36C91.78 29.44 92.6733 27.16 93.22 24.52Z" fill="white"/>
</svg>
